<svg width="32" height="32" viewBox="0 0 32 32" fill="none" xmlns="http://www.w3.org/2000/svg">
<path d="M15.7971 11.0242H2.79712V29.7122H15.7971V11.0242Z" fill="#F0BF00"/>
<path d="M26.369 0.825501C27.7699 0.825531 29.1178 1.35272 30.1362 2.29897C31.1546 3.24522 31.7663 4.53883 31.846 5.91454L31.855 6.22044V26.1487C31.855 27.5798 31.277 28.9523 30.2482 29.9642C29.2194 30.9762 27.824 31.5447 26.369 31.5447H6.111C4.71005 31.5446 3.3622 31.0174 2.34381 30.0712C1.32543 29.1249 0.713675 27.8313 0.634 26.4556L0.625 26.1487V6.21945C0.62553 4.78854 1.20389 3.41642 2.23287 2.40489C3.26186 1.39335 4.6572 0.82524 6.112 0.825501H26.369ZM14.969 12.4475H3.153V26.1487L3.165 26.4153C3.23264 27.1374 3.5724 27.8086 4.11751 28.2969C4.66263 28.7852 5.3737 29.0553 6.111 29.0542H14.973L14.969 12.4475ZM29.325 22.4072H17.509V29.0542H26.372C27.1553 29.054 27.9064 28.7477 28.4601 28.2029C29.0139 27.658 29.325 26.9192 29.325 26.1487V22.4072ZM26.369 3.31396H17.505V19.9187H29.321V6.22142L29.309 5.95487C29.2419 5.23339 28.9032 4.56259 28.3593 4.07402C27.8154 3.58546 27.1056 3.31438 26.369 3.31396ZM14.969 3.31396H6.108L5.866 3.32379C5.12775 3.3847 4.43969 3.71614 3.93815 4.25244C3.4366 4.78874 3.15817 5.49077 3.158 6.21945V9.95705H14.974L14.969 3.31396Z" fill="#212121"/>
</svg>
