<svg width="45" height="40" viewBox="0 0 45 40" fill="none" xmlns="http://www.w3.org/2000/svg">
<path d="M23 6.54034H7C6.44772 6.54034 6 6.98071 6 7.52392V33.097C6 33.6402 6.44772 34.0806 7 34.0806H23C23.5523 34.0806 24 33.6402 24 33.097V7.52392C24 6.98071 23.5523 6.54034 23 6.54034Z" fill="#F0BF00"/>
<path d="M41.274 0.799194H3.73397C2.75579 0.801532 1.81835 1.18477 1.12666 1.86509C0.43498 2.54542 0.0453452 3.46747 0.0429688 4.42959L0.0429688 35.8422C0.0453452 36.8043 0.43498 37.7263 1.12666 38.4067C1.81835 39.087 2.75579 39.4702 3.73397 39.4726H41.274C42.2522 39.4702 43.1896 39.087 43.8813 38.4067C44.573 37.7263 44.9626 36.8043 44.965 35.8422V4.42959C44.9626 3.46747 44.573 2.54542 43.8813 1.86509C43.1896 1.18477 42.2522 0.801532 41.274 0.799194ZM27.896 37.7975H17.113V35.0042H27.896V37.7975ZM6.28997 33.3291V6.94362H38.719V33.3291H6.28997ZM43.262 35.8432C43.2614 36.3616 43.0518 36.8586 42.6791 37.2252C42.3064 37.5918 41.8011 37.798 41.274 37.7985H29.6V35.0051H39.571C39.7969 35.0051 40.0136 34.9169 40.1734 34.7597C40.3332 34.6025 40.423 34.3894 40.423 34.1671V6.10561C40.423 5.88335 40.3332 5.6702 40.1734 5.51304C40.0136 5.35589 39.7969 5.2676 39.571 5.2676H5.44297C5.217 5.2676 5.00029 5.35589 4.84051 5.51304C4.68073 5.6702 4.59097 5.88335 4.59097 6.10561V34.1662C4.59097 34.3884 4.68073 34.6016 4.84051 34.7587C5.00029 34.9159 5.217 35.0042 5.44297 35.0042H15.414V37.7975H3.73397C3.20636 37.7978 2.70024 37.592 2.32689 37.2253C1.95353 36.8586 1.7435 36.3611 1.74297 35.8422V4.42959C1.7435 3.91116 1.95312 3.41411 2.32583 3.04752C2.69853 2.68093 3.20388 2.47475 3.73097 2.47423H41.271C41.7981 2.47475 42.3034 2.68093 42.6761 3.04752C43.0488 3.41411 43.2584 3.91116 43.259 4.42959L43.262 35.8432Z" fill="black"/>
</svg>
