<svg width="36" height="46" viewBox="0 0 36 46" fill="none" xmlns="http://www.w3.org/2000/svg">
<path d="M30 11.2487H23C20.2386 11.2487 18 13.4505 18 16.1666V39.7725C18 42.4885 20.2386 44.6904 23 44.6904H30C32.7614 44.6904 35 42.4885 35 39.7725V16.1666C35 13.4505 32.7614 11.2487 30 11.2487Z" fill="#F0BF00"/>
<path d="M8.13297 6.58749L11.278 3.49708L14.42 6.58749C14.5418 6.72499 14.6911 6.83639 14.8585 6.91478C15.0259 6.99317 15.2079 7.03687 15.3933 7.04317C15.5786 7.04948 15.7632 7.01824 15.9358 6.95141C16.1083 6.88458 16.265 6.78358 16.3962 6.65468C16.5274 6.52579 16.6303 6.37174 16.6984 6.20211C16.7665 6.03248 16.7985 5.85088 16.7922 5.6686C16.786 5.48632 16.7418 5.30724 16.6623 5.14247C16.5827 4.97771 16.4696 4.83078 16.33 4.71082L12.232 0.67814C11.9782 0.428699 11.6342 0.288574 11.2755 0.288574C10.9167 0.288574 10.5727 0.428699 10.319 0.67814L6.21896 4.71082C5.97411 4.9621 5.83909 5.29773 5.84285 5.64576C5.8466 5.9938 5.98883 6.32653 6.23905 6.57265C6.48927 6.81876 6.82757 6.95865 7.18141 6.96235C7.53526 6.96604 7.87649 6.83324 8.13197 6.5924L8.13297 6.58749Z" fill="black"/>
<path d="M24.3121 6.58849C24.5658 6.83793 24.9099 6.97805 25.2686 6.97805C25.6273 6.97805 25.9714 6.83793 26.2251 6.58849L30.3251 2.55581C30.4599 2.43434 30.5682 2.28727 30.6436 2.12348C30.719 1.95969 30.7598 1.78257 30.7637 1.60282C30.7675 1.42307 30.7343 1.24441 30.6661 1.07763C30.5978 0.910852 30.4959 0.759409 30.3664 0.632444C30.237 0.505479 30.0828 0.405625 29.913 0.338909C29.7433 0.272194 29.5616 0.24 29.3788 0.244272C29.1961 0.248544 29.0161 0.289193 28.8498 0.363765C28.6835 0.438337 28.5342 0.545285 28.4111 0.678155L25.2691 3.76856L22.1271 0.678155C21.8716 0.437322 21.5304 0.304518 21.1765 0.308211C20.8227 0.311905 20.4844 0.451802 20.2342 0.697914C19.984 0.944025 19.8417 1.27676 19.838 1.6248C19.8342 1.97283 19.9692 2.30846 20.2141 2.55974L24.3121 6.58849Z" fill="black"/>
<path d="M30.589 10.0172H5.95501C4.63569 10.0185 3.3708 10.5346 2.4379 11.4522C1.50501 12.3697 0.980328 13.6139 0.979004 14.9115V44.3756C0.979004 44.7286 1.12155 45.067 1.37529 45.3166C1.62903 45.5662 1.97317 45.7064 2.332 45.7064H34.212C34.5708 45.7064 34.915 45.5662 35.1687 45.3166C35.4225 45.067 35.565 44.7286 35.565 44.3756V14.9115C35.5637 13.6139 35.039 12.3697 34.1061 11.4522C33.1732 10.5346 31.9083 10.0185 30.589 10.0172ZM3.689 14.9115C3.68953 14.3195 3.92886 13.7519 4.35446 13.3333C4.78005 12.9147 5.35712 12.6793 5.959 12.6788H16.919V43.0448H3.68501L3.689 14.9115ZM32.863 43.0419H19.625V12.6788H30.589C31.1909 12.6793 31.768 12.9147 32.1936 13.3333C32.6191 13.7519 32.8585 14.3195 32.859 14.9115L32.863 43.0419Z" fill="black"/>
<path d="M30.456 26.3417C30.7686 26.3424 31.0719 26.2364 31.3141 26.0419C31.5563 25.8474 31.7224 25.5763 31.7843 25.2749C31.8461 24.9734 31.7998 24.6602 31.6532 24.3885C31.5066 24.1168 31.2688 23.9035 30.9803 23.7849C30.6918 23.6663 30.3705 23.6497 30.0709 23.738C29.7714 23.8263 29.5122 24.0139 29.3376 24.269C29.1629 24.5241 29.0835 24.8308 29.1129 25.137C29.1424 25.4432 29.2788 25.7299 29.499 25.9482C29.7526 26.1985 30.0967 26.3399 30.456 26.3417Z" fill="black"/>
<path d="M30.4561 29.382C30.1431 29.381 29.8394 29.4867 29.5968 29.6812C29.3542 29.8757 29.1877 30.1469 29.1255 30.4487C29.0634 30.7504 29.1096 31.064 29.2562 31.336C29.4028 31.608 29.6407 31.8216 29.9294 31.9404C30.2181 32.0592 30.5398 32.0759 30.8397 31.9876C31.1395 31.8993 31.399 31.7116 31.5738 31.4562C31.7487 31.2009 31.8281 30.8938 31.7986 30.5874C31.7691 30.2809 31.6325 29.9939 31.4121 29.7754C31.1585 29.5256 30.815 29.3842 30.4561 29.382Z" fill="black"/>
</svg>
