<svg width="45" height="29" viewBox="0 0 45 29" fill="none" xmlns="http://www.w3.org/2000/svg">
<path d="M20.729 6.81817V26.7947H32.229L32.688 22.2702H36.827V25.6586H41.5C41.5 25.6586 42.879 24.0003 42.879 23.0207C42.879 22.041 42.34 12.0951 42.34 12.0951L40.809 9.60662L36.209 10.1348V13.6019H32.225V8.40075H30.232C30.232 8.40075 28.162 7.87355 28.009 7.57159C27.856 7.26963 27.395 5.61328 26.629 5.98704C24.6841 6.39693 22.7127 6.67463 20.729 6.81817Z" fill="#F0BF00"/>
<path d="M42.824 9.59482L42.403 8.90631H34.994V12.278H34.253V7.38963H30.414L27.976 5.26412H23.945V3.3245H25.245V0.479004H14.965V3.3245H16.265V5.25821H12.065L9.627 7.38373H4.833V14.4507H2.893V10.8194H0V20.9276H2.893V17.2962H4.833V24.3633H12.064L17.15 28.7992H34.25V23.8193H34.991V27.1911H42.4L42.821 26.5026C42.978 26.2449 44.353 23.8154 44.353 18.0516C44.353 12.2879 42.98 9.85252 42.824 9.59482ZM19.154 3.3245H21.054V5.25821H19.154V3.3245ZM40.623 24.3446H37.887V20.9729H31.36V25.9527H18.249L13.163 21.5168H7.726V10.2292H10.726L13.164 8.10273H26.878L29.316 10.2292H31.36V15.1176H37.887V11.7459H40.624C41.2451 13.7864 41.5284 15.9118 41.463 18.0408C41.5294 20.1728 41.2461 22.3013 40.624 24.3446H40.623Z" fill="black"/>
</svg>
