<svg width="46" height="46" viewBox="0 0 46 46" fill="none" xmlns="http://www.w3.org/2000/svg">
<path d="M22.7581 6.4236L29.1941 2.12634L33.5651 4.23809V11.6248C34.1171 11.6248 42.1471 12.8149 42.1471 13.3588L44.8301 17.4289L40.5371 21.198L40.0781 24.4438L44.2171 28.9682L42.7601 33.4927L37.3191 33.9451L33.5651 36.9598V43.1416C33.5651 43.6846 29.7461 44.3475 29.1941 44.3475L22.9001 40.4181V33.9373C22.9001 33.9373 30.0891 31.7409 31.2201 30.0295C35.5141 23.5379 32.0001 19.5052 31.4491 16.9656C30.6491 13.2595 22.7581 12.8828 22.7581 12.8828V6.4236Z" fill="#F0BF00"/>
<path d="M22.9939 16.4935C21.634 16.4935 20.3046 16.8902 19.1738 17.6333C18.0431 18.3765 17.1618 19.4327 16.6413 20.6685C16.1209 21.9043 15.9847 23.2641 16.25 24.576C16.5154 25.888 17.1702 27.093 18.1319 28.0389C19.0935 28.9847 20.3187 29.6288 21.6525 29.8898C22.9863 30.1507 24.3688 30.0168 25.6252 29.5049C26.8817 28.993 27.9556 28.1262 28.7111 27.014C29.4666 25.9018 29.8699 24.5942 29.8699 23.2566C29.8678 21.4636 29.1427 19.7446 27.8537 18.4767C26.5646 17.2088 24.8169 16.4956 22.9939 16.4935ZM22.9939 27.5155C22.1377 27.5155 21.3008 27.2658 20.5889 26.7979C19.877 26.3301 19.3221 25.6651 18.9944 24.887C18.6668 24.109 18.5811 23.2529 18.7481 22.4269C18.9151 21.601 19.3274 20.8423 19.9329 20.2468C20.5383 19.6513 21.3096 19.2458 22.1494 19.0815C22.9891 18.9172 23.8595 19.0015 24.6506 19.3238C25.4416 19.6461 26.1177 20.1918 26.5934 20.892C27.069 21.5922 27.3229 22.4155 27.3229 23.2576C27.3216 24.3865 26.8651 25.4687 26.0535 26.267C25.242 27.0652 24.1416 27.5142 22.9939 27.5155Z" fill="black"/>
<path d="M45.5249 28.265L41.6309 24.8077V21.7065L45.5249 18.2492C45.7202 18.0759 45.8561 17.8473 45.914 17.5949C45.9718 17.3425 45.9487 17.0787 45.8479 16.8397L43.7669 11.8943C43.6663 11.6555 43.493 11.4531 43.2708 11.3151C43.0486 11.177 42.7884 11.11 42.5259 11.1231L37.2869 11.3867L35.0579 9.19828L35.3259 4.04531C35.3396 3.78697 35.2715 3.53082 35.1311 3.31208C34.9907 3.09333 34.7849 2.92272 34.5419 2.8237L29.5179 0.779821C29.2753 0.680317 29.0072 0.657152 28.7507 0.713509C28.4941 0.769866 28.2615 0.90298 28.0849 1.09457L24.5699 4.92463H21.4179L17.9029 1.09457C17.7263 0.903305 17.494 0.770405 17.2376 0.714061C16.9813 0.657718 16.7135 0.680686 16.4709 0.779821L11.4419 2.8237C11.1997 2.92335 10.9947 3.09422 10.8551 3.31292C10.7155 3.53161 10.648 3.78742 10.6619 4.04531L10.9299 9.19828L8.70094 11.3897L3.46194 11.1271C3.19945 11.1139 2.93925 11.1809 2.71705 11.319C2.49486 11.4571 2.32155 11.6594 2.22094 11.8982L0.141936 16.8397C0.0412723 17.0787 0.0182785 17.3425 0.0761103 17.5948C0.133942 17.8472 0.269765 18.0758 0.464936 18.2492L4.35894 21.7065V24.8067L0.462936 28.264C0.267981 28.4375 0.132453 28.6662 0.0749748 28.9186C0.0174964 29.171 0.0408881 29.4347 0.141936 29.6735L2.22094 34.615C2.32131 34.854 2.49456 35.0564 2.71681 35.1945C2.93907 35.3327 3.1994 35.3996 3.46194 35.3861L8.70094 35.1225L10.9299 37.3149L10.6619 42.4679C10.6485 42.726 10.7167 42.982 10.8571 43.2005C10.9974 43.4191 11.2031 43.5895 11.4459 43.6885L16.4699 45.7353C16.7127 45.8344 16.9808 45.857 17.2372 45.8001C17.4937 45.7433 17.7259 45.6096 17.9019 45.4176L21.4169 41.5876H24.5689L28.0839 45.4176C28.2601 45.6095 28.4923 45.743 28.7487 45.7999C29.0051 45.8568 29.2731 45.8342 29.5159 45.7353L34.5419 43.6895C34.7847 43.5905 34.9904 43.42 35.1308 43.2015C35.2712 42.9829 35.3394 42.727 35.3259 42.4688L35.0579 37.3159L37.2869 35.1235L42.5259 35.3871C42.7884 35.4 43.0484 35.3328 43.2706 35.1948C43.4927 35.0568 43.6661 34.8546 43.7669 34.6159L45.8479 29.6744C45.9486 29.4354 45.9716 29.1717 45.9138 28.9193C45.8559 28.6669 45.7201 28.4384 45.5249 28.265ZM41.7579 32.8445L36.8509 32.5976C36.6731 32.5886 36.4953 32.6164 36.329 32.6792C36.1628 32.7421 36.0118 32.8386 35.8859 32.9625L32.8569 35.9418C32.7311 36.0657 32.6331 36.2142 32.5691 36.3777C32.5052 36.5412 32.4769 36.716 32.4859 36.891L32.7369 41.7174L29.3729 43.0836L26.0809 39.4965C25.9615 39.3665 25.8157 39.2625 25.653 39.1914C25.4902 39.1202 25.3141 39.0834 25.1359 39.0834H20.8519C20.6738 39.0834 20.4976 39.1201 20.3349 39.1913C20.1721 39.2624 20.0263 39.3664 19.9069 39.4965L16.6149 43.0836L13.2519 41.7135L13.5029 36.887C13.5119 36.712 13.4834 36.5371 13.4193 36.3736C13.3553 36.2101 13.257 36.0617 13.1309 35.9379L10.1019 32.9586C9.97602 32.8347 9.82506 32.7382 9.65883 32.6754C9.4926 32.6125 9.3148 32.5847 9.13694 32.5937L4.22994 32.8445L2.83694 29.5318L6.48394 26.2939C6.61612 26.1764 6.72179 26.033 6.79413 25.8729C6.86648 25.7128 6.90388 25.5396 6.90394 25.3644V21.1498C6.90394 20.9745 6.86657 20.8013 6.79422 20.6412C6.72187 20.4811 6.61616 20.3377 6.48394 20.2203L2.83694 16.9823L4.22994 13.6736L9.13694 13.9204C9.3148 13.9295 9.49262 13.9017 9.65886 13.8389C9.8251 13.776 9.97606 13.6795 10.1019 13.5555L13.1309 10.5763C13.2571 10.4523 13.3554 10.3037 13.4195 10.14C13.4835 9.97637 13.512 9.8013 13.5029 9.62614L13.2519 4.79971L16.6149 3.42958L19.9069 7.0167C20.0263 7.14671 20.1721 7.25065 20.3349 7.3218C20.4977 7.39296 20.6738 7.42975 20.8519 7.4298H25.1359C25.3141 7.42981 25.4902 7.39305 25.653 7.32189C25.8158 7.25073 25.9616 7.14676 26.0809 7.0167L29.3729 3.42958L32.7359 4.79971L32.4849 9.62614C32.4758 9.80122 32.504 9.97626 32.5679 10.1399C32.6318 10.3036 32.73 10.4522 32.8559 10.5763L35.8849 13.5555C36.0106 13.6798 36.1615 13.7765 36.3278 13.8394C36.4941 13.9023 36.672 13.9299 36.8499 13.9204L41.7569 13.6736L43.1499 16.9823L39.5029 20.2203C39.3708 20.3377 39.2651 20.4811 39.1927 20.6412C39.1204 20.8013 39.083 20.9746 39.0829 21.1498V25.3634C39.0829 25.5386 39.1203 25.7119 39.1927 25.872C39.265 26.0321 39.3707 26.1755 39.5029 26.2929L43.1499 29.5308L41.7579 32.8445Z" fill="black"/>
<path d="M22.998 11.4172C20.6172 11.4165 18.2895 12.1102 16.3095 13.4106C14.3295 14.7111 12.7861 16.5598 11.8745 18.7231C10.9628 20.8864 10.7238 23.267 11.1878 25.5639C11.6518 27.8608 12.7979 29.9707 14.4812 31.6269C16.1644 33.283 18.3092 34.411 20.6443 34.8682C22.9793 35.3253 25.3998 35.0911 27.5995 34.1951C29.7992 33.2991 31.6793 31.7816 33.0022 29.8346C34.325 27.8875 35.031 25.5983 35.031 23.2566C35.0273 20.1184 33.7585 17.1097 31.5028 14.8903C29.2471 12.6709 26.1886 11.4219 22.998 11.4172ZM22.998 32.5917C21.1209 32.5919 19.2858 32.0446 17.7248 31.019C16.1639 29.9933 14.9473 28.5354 14.2288 26.8297C13.5103 25.1239 13.3222 23.2469 13.6883 21.436C14.0544 19.6251 14.9582 17.9616 16.2855 16.656C17.6128 15.3503 19.304 14.4612 21.1451 14.1009C22.9862 13.7406 24.8945 13.9254 26.6289 14.6319C28.3632 15.3385 29.8455 16.535 30.8884 18.0701C31.9314 19.6053 32.488 21.4102 32.488 23.2566C32.4857 25.7315 31.4851 28.1045 29.7059 29.8546C27.9267 31.6047 25.5143 32.5891 22.998 32.5917Z" fill="black"/>
</svg>
