<svg width="46" height="46" viewBox="0 0 46 46" fill="none" xmlns="http://www.w3.org/2000/svg">
<path d="M23.002 33.4021C20.0856 33.3989 17.2888 32.2578 15.2266 30.2294C13.1644 28.2011 12.0052 25.4512 12.002 22.5827C11.9984 21.1608 12.2824 19.7515 12.836 18.438C13.3895 17.1245 14.2013 15.9326 15.2266 14.9302C16.2453 13.9222 17.458 13.1228 18.793 12.5788C20.128 12.0348 21.559 11.7574 23.0039 11.7614C24.4486 11.7576 25.8803 12.0358 27.2149 12.5798C28.5495 13.1237 29.7609 13.9224 30.7793 14.9302C31.8038 15.933 32.6151 17.1255 33.168 18.439C33.7209 19.7525 34.0041 21.1611 34 22.5827C34.0039 24.0037 33.7209 25.4107 33.168 26.7235C32.6151 28.0364 31.8037 29.2283 30.7793 30.2304C29.7608 31.2388 28.5479 32.0384 27.2129 32.5827C25.8779 33.1271 24.4471 33.4059 23.002 33.4021ZM23.002 17.6648C21.6766 17.6669 20.406 18.1857 19.4688 19.1075C18.5316 20.0293 18.0041 21.279 18.002 22.5827C18.0033 23.8866 18.5314 25.1359 19.4688 26.0579C20.4062 26.9799 21.6763 27.4993 23.002 27.5006C24.3281 27.5006 25.5995 26.9821 26.5371 26.0598C27.4748 25.1375 28.002 23.887 28.002 22.5827C28.0017 21.2786 27.4748 20.0277 26.5371 19.1056C25.5995 18.1835 24.3279 17.6658 23.002 17.6658V17.6648Z" fill="#F0BF00"/>
<path d="M22.9939 16.2391C21.634 16.2391 20.3046 16.6358 19.1738 17.3789C18.0431 18.1221 17.1618 19.1783 16.6413 20.4141C16.1209 21.6499 15.9847 23.0097 16.25 24.3216C16.5154 25.6336 17.1702 26.8386 18.1319 27.7845C19.0935 28.7303 20.3187 29.3744 21.6525 29.6354C22.9863 29.8963 24.3688 29.7624 25.6252 29.2505C26.8817 28.7386 27.9556 27.8718 28.7111 26.7596C29.4666 25.6474 29.8699 24.3398 29.8699 23.0022C29.8678 21.2092 29.1427 19.4902 27.8537 18.2223C26.5646 16.9544 24.8169 16.2412 22.9939 16.2391ZM22.9939 27.2611C22.1377 27.2611 21.3008 27.0114 20.5889 26.5435C19.877 26.0757 19.3221 25.4107 18.9944 24.6326C18.6668 23.8546 18.5811 22.9985 18.7481 22.1725C18.9151 21.3466 19.3274 20.5879 19.9329 19.9924C20.5383 19.3969 21.3096 18.9914 22.1494 18.8271C22.9891 18.6628 23.8595 18.7471 24.6506 19.0694C25.4416 19.3917 26.1177 19.9374 26.5934 20.6376C27.069 21.3379 27.3229 22.1611 27.3229 23.0032C27.3216 24.1321 26.8651 25.2143 26.0535 26.0126C25.242 26.8108 24.1416 27.2598 22.9939 27.2611Z" fill="black"/>
<path d="M45.5249 28.0106L41.6309 24.5534V21.4521L45.5249 17.9948C45.7202 17.8215 45.8561 17.593 45.914 17.3406C45.9718 17.0882 45.9487 16.8243 45.8479 16.5854L43.7669 11.6399C43.6663 11.4011 43.493 11.1988 43.2708 11.0607C43.0486 10.9227 42.7884 10.8556 42.5259 10.8688L37.2869 11.1324L35.0579 8.94395L35.3259 3.79097C35.3396 3.53264 35.2715 3.27649 35.1311 3.05774C34.9907 2.839 34.7849 2.66839 34.5419 2.56937L29.5179 0.525488C29.2753 0.425983 29.0072 0.402818 28.7507 0.459175C28.4941 0.515532 28.2615 0.648647 28.0849 0.840233L24.5699 4.67029H21.4179L17.9029 0.840233C17.7263 0.648972 17.494 0.516071 17.2376 0.459728C16.9813 0.403384 16.7135 0.426353 16.4709 0.525488L11.4419 2.56937C11.1997 2.66901 10.9947 2.83989 10.8551 3.05858C10.7155 3.27728 10.648 3.53309 10.6619 3.79097L10.9299 8.94395L8.70094 11.1354L3.46194 10.8727C3.19945 10.8596 2.93925 10.9266 2.71705 11.0647C2.49486 11.2027 2.32155 11.4051 2.22094 11.6439L0.141936 16.5854C0.0412723 16.8244 0.0182785 17.0882 0.0761103 17.3405C0.133942 17.5929 0.269765 17.8214 0.464936 17.9948L4.35894 21.4521V24.5524L0.462936 28.0097C0.267981 28.1832 0.132453 28.4119 0.0749748 28.6643C0.0174964 28.9167 0.0408881 29.1803 0.141936 29.4191L2.22094 34.3606C2.32131 34.5996 2.49456 34.8021 2.71681 34.9402C2.93907 35.0783 3.1994 35.1452 3.46194 35.1318L8.70094 34.8682L10.9299 37.0606L10.6619 42.2135C10.6485 42.4717 10.7167 42.7276 10.8571 42.9462C10.9974 43.1647 11.2031 43.3352 11.4459 43.4341L16.4699 45.481C16.7127 45.5801 16.9808 45.6027 17.2372 45.5458C17.4937 45.4889 17.7259 45.3553 17.9019 45.1633L21.4169 41.3332H24.5689L28.0839 45.1633C28.2601 45.3552 28.4923 45.4887 28.7487 45.5456C29.0051 45.6025 29.2731 45.5799 29.5159 45.481L34.5419 43.4351C34.7847 43.3362 34.9904 43.1657 35.1308 42.9472C35.2712 42.7286 35.3394 42.4727 35.3259 42.2145L35.0579 37.0615L37.2869 34.8691L42.5259 35.1327C42.7884 35.1456 43.0484 35.0785 43.2706 34.9405C43.4927 34.8024 43.6661 34.6003 43.7669 34.3616L45.8479 29.4201C45.9486 29.1811 45.9716 28.9173 45.9138 28.665C45.8559 28.4126 45.7201 28.184 45.5249 28.0106ZM41.7579 32.5902L36.8509 32.3433C36.6731 32.3342 36.4953 32.362 36.329 32.4249C36.1628 32.4878 36.0118 32.5843 35.8859 32.7082L32.8569 35.6875C32.7311 35.8114 32.6331 35.9599 32.5691 36.1234C32.5052 36.2869 32.4769 36.4617 32.4859 36.6366L32.7369 41.4631L29.3729 42.8293L26.0809 39.2421C25.9615 39.1121 25.8157 39.0082 25.653 38.937C25.4902 38.8659 25.3141 38.8291 25.1359 38.829H20.8519C20.6738 38.829 20.4976 38.8658 20.3349 38.9369C20.1721 39.0081 20.0263 39.1121 19.9069 39.2421L16.6149 42.8293L13.2519 41.4591L13.5029 36.6327C13.5119 36.4577 13.4834 36.2828 13.4193 36.1193C13.3553 35.9558 13.257 35.8073 13.1309 35.6835L10.1019 32.7043C9.97602 32.5804 9.82506 32.4839 9.65883 32.421C9.4926 32.3582 9.3148 32.3304 9.13694 32.3394L4.22994 32.5902L2.83694 29.2775L6.48394 26.0395C6.61612 25.9221 6.72179 25.7787 6.79413 25.6186C6.86648 25.4585 6.90388 25.2853 6.90394 25.1101V20.8954C6.90394 20.7202 6.86657 20.547 6.79422 20.3868C6.72187 20.2267 6.61616 20.0833 6.48394 19.9659L2.83694 16.728L4.22994 13.4192L9.13694 13.6661C9.3148 13.6752 9.49262 13.6474 9.65886 13.5845C9.8251 13.5217 9.97606 13.4251 10.1019 13.3012L13.1309 10.3219C13.2571 10.198 13.3554 10.0494 13.4195 9.88571C13.4835 9.72204 13.512 9.54696 13.5029 9.3718L13.2519 4.54538L16.6149 3.17525L19.9069 6.76237C20.0263 6.89238 20.1721 6.99631 20.3349 7.06747C20.4977 7.13862 20.6738 7.17542 20.8519 7.17547H25.1359C25.3141 7.17548 25.4902 7.13871 25.653 7.06755C25.8158 6.99639 25.9616 6.89242 26.0809 6.76237L29.3729 3.17525L32.7359 4.54538L32.4849 9.3718C32.4758 9.54689 32.504 9.72192 32.5679 9.88559C32.6318 10.0493 32.73 10.1979 32.8559 10.3219L35.8849 13.3012C36.0106 13.4254 36.1615 13.5222 36.3278 13.585C36.4941 13.6479 36.672 13.6756 36.8499 13.6661L41.7569 13.4192L43.1499 16.728L39.5029 19.9659C39.3708 20.0834 39.2651 20.2268 39.1927 20.3869C39.1204 20.547 39.083 20.7202 39.0829 20.8954V25.1091C39.0829 25.2843 39.1203 25.4575 39.1927 25.6177C39.265 25.7778 39.3707 25.9212 39.5029 26.0386L43.1499 29.2765L41.7579 32.5902Z" fill="black"/>
<path d="M22.998 11.163C20.6172 11.1622 18.2895 11.8559 16.3095 13.1563C14.3295 14.4568 12.7861 16.3056 11.8745 18.4689C10.9628 20.6321 10.7238 23.0128 11.1878 25.3096C11.6518 27.6065 12.7979 29.7164 14.4812 31.3726C16.1644 33.0288 18.3092 34.1567 20.6443 34.6139C22.9793 35.071 25.3998 34.8368 27.5995 33.9408C29.7992 33.0448 31.6793 31.5274 33.0022 29.5803C34.325 27.6333 35.031 25.3441 35.031 23.0023C35.0273 19.8641 33.7585 16.8554 31.5028 14.636C29.2471 12.4166 26.1886 11.1676 22.998 11.163ZM22.998 32.3375C21.1209 32.3377 19.2858 31.7903 17.7248 30.7647C16.1639 29.739 14.9473 28.2812 14.2288 26.5754C13.5103 24.8696 13.3222 22.9926 13.6883 21.1817C14.0544 19.3708 14.9582 17.7074 16.2855 16.4017C17.6128 15.0961 19.304 14.2069 21.1451 13.8466C22.9862 13.4863 24.8945 13.6711 26.6289 14.3777C28.3632 15.0842 29.8455 16.2807 30.8884 17.8159C31.9314 19.3511 32.488 21.1559 32.488 23.0023C32.4857 25.4773 31.4851 27.8502 29.7059 29.6003C27.9267 31.3505 25.5143 32.3349 22.998 32.3375Z" fill="black"/>
</svg>
