<svg width="44" height="28" viewBox="0 0 44 28" fill="none" xmlns="http://www.w3.org/2000/svg">
<path d="M28.0003 27.0838H15.0003C13.2923 27.0887 11.5998 26.7603 10.0218 26.1176C8.44378 25.4748 7.01134 24.5308 5.80693 23.3397C4.59616 22.1549 3.63618 20.7452 2.98271 19.1931C2.32925 17.6411 1.99564 15.9772 2.00029 14.2973C1.99564 12.6174 2.32925 10.9536 2.98271 9.4015C3.63618 7.84945 4.59616 6.4397 5.80693 5.25491C7.01139 4.06379 8.4438 3.11997 10.0218 2.47706C11.5997 1.83415 13.2923 1.50531 15.0003 1.50981H28.0003C29.708 1.50535 31.3992 1.83415 32.9769 2.47706C34.5545 3.11997 35.9876 4.06385 37.1917 5.25491C38.4029 6.43951 39.3621 7.84848 40.0159 9.40054C40.6697 10.9526 41.0047 12.6173 41.0003 14.2973C41.0047 15.9773 40.6697 17.641 40.0159 19.1931C39.3621 20.7452 38.4029 22.1551 37.1917 23.3397C35.9876 24.5306 34.5545 25.4748 32.9769 26.1176C31.3992 26.7603 29.7079 27.0885 28.0003 27.0838ZM30.0003 8.39583C28.4096 8.39791 26.8848 9.02041 25.7601 10.1267C24.6353 11.233 24.0024 12.7328 24.0003 14.2973C24.0024 15.8618 24.6353 17.3616 25.7601 18.4679C26.8848 19.5742 28.4096 20.1967 30.0003 20.1988C31.5912 20.1975 33.1156 19.5753 34.2405 18.4689C35.3655 17.3624 35.999 15.8621 36.0003 14.2973C35.9992 12.7327 35.367 11.2324 34.2425 10.1257C33.118 9.01912 31.593 8.39669 30.0022 8.39487L30.0003 8.39583Z" fill="#F0BF00"/>
<path d="M14.14 3.9352C11.3117 3.9352 8.59926 5.04027 6.59937 7.00732C4.59948 8.97437 3.47596 11.6423 3.47596 14.4241C3.47596 17.2059 4.59948 19.8738 6.59937 21.8409C8.59926 23.8079 11.3117 24.913 14.14 24.913H29.374C32.2022 24.913 34.9146 23.8079 36.9145 21.8409C38.9144 19.8738 40.038 17.2059 40.038 14.4241C40.038 11.6423 38.9144 8.97437 36.9145 7.00732C34.9146 5.04027 32.2022 3.9352 29.374 3.9352H14.14ZM14.14 0.938232H29.374C33.0103 0.938232 36.4978 2.35906 39.0691 4.88814C41.6404 7.41723 43.085 10.8474 43.085 14.4241C43.085 18.0008 41.6404 21.4309 39.0691 23.96C36.4978 26.4891 33.0103 27.91 29.374 27.91H14.14C10.5036 27.91 7.01612 26.4891 4.44481 23.96C1.8735 21.4309 0.428955 18.0008 0.428955 14.4241C0.428955 10.8474 1.8735 7.41723 4.44481 4.88814C7.01612 2.35906 10.5036 0.938232 14.14 0.938232Z" fill="black"/>
<path d="M29.3738 18.919C30.2777 18.919 31.1612 18.6554 31.9128 18.1615C32.6643 17.6676 33.25 16.9656 33.5959 16.1442C33.9418 15.3229 34.0323 14.4191 33.856 13.5471C33.6797 12.6752 33.2444 11.8743 32.6053 11.2456C31.9662 10.617 31.1519 10.1889 30.2654 10.0155C29.3789 9.84204 28.4601 9.93104 27.625 10.2713C26.7899 10.6115 26.0762 11.1876 25.574 11.9268C25.0719 12.666 24.8038 13.535 24.8038 14.4241C24.8038 15.6162 25.2853 16.7595 26.1423 17.6025C26.9994 18.4454 28.1618 18.919 29.3738 18.919ZM29.3738 21.916C27.8673 21.916 26.3946 21.4766 25.142 20.6534C23.8894 19.8302 22.9132 18.6601 22.3367 17.2911C21.7602 15.9221 21.6093 14.4158 21.9032 12.9625C22.1971 11.5092 22.9225 10.1742 23.9878 9.12648C25.053 8.07872 26.4103 7.36517 27.8878 7.07609C29.3654 6.78701 30.8969 6.93537 32.2888 7.50241C33.6806 8.06946 34.8702 9.02973 35.7071 10.2618C36.5441 11.4938 36.9908 12.9423 36.9908 14.4241C36.9908 15.4079 36.7938 16.3821 36.411 17.2911C36.0282 18.2 35.4672 19.026 34.7599 19.7217C34.0526 20.4174 33.2129 20.9692 32.2888 21.3457C31.3646 21.7222 30.3741 21.916 29.3738 21.916Z" fill="black"/>
</svg>
