<svg width="47" height="42" viewBox="0 0 47 42" fill="none" xmlns="http://www.w3.org/2000/svg">
<path d="M45.6031 8.76719L23.5551 0.646761C23.3367 0.566965 23.0964 0.566965 22.8781 0.646761L0.677057 8.82424C0.54798 8.87133 0.43068 8.94511 0.333084 9.04061C0.235487 9.13611 0.159866 9.2511 0.11133 9.37781C0.0627946 9.50452 0.0424747 9.64001 0.0517434 9.77511C0.0610122 9.91021 0.0996536 10.0418 0.165057 10.1609V33.0901C0.165026 33.2877 0.227617 33.4804 0.344118 33.6413C0.460619 33.8023 0.625235 33.9235 0.815057 33.9881L22.6621 41.4043C22.8065 41.4954 22.9699 41.5535 23.1402 41.5742C23.3105 41.595 23.4833 41.5779 23.6461 41.5243L45.8461 33.9872C46.0359 33.9225 46.2005 33.8013 46.317 33.6404C46.4335 33.4794 46.4961 33.2867 46.4961 33.0892V9.7134C46.5071 9.258 45.9641 8.89309 45.6031 8.76719ZM42.6661 9.7134L23.2751 16.8542L17.4561 14.711L35.9251 7.22789L42.6661 9.7134ZM33.2661 6.25218L13.8611 14.1149L13.3831 18.6817L9.77006 17.2476V13.0113L29.9001 5.0109L33.2661 6.25218ZM23.2171 2.54999L27.2261 4.02536L8.56906 11.4445L3.82506 9.69274L23.2171 2.54999ZM2.09506 11.1248L7.84306 13.2405V18.5312L15.0431 21.3836L15.5961 16.0949L22.3681 18.5892V39.2946L2.09706 32.4095V11.1248H2.09506ZM44.5681 32.4125L24.2971 39.2975V18.5489L44.5681 11.0825V32.4125Z" fill="black"/>
</svg>
