<svg width="31" height="42" viewBox="0 0 31 42" fill="none" xmlns="http://www.w3.org/2000/svg">
<path d="M30.558 17.265C30.4551 17.0341 30.2861 16.8377 30.0715 16.6999C29.857 16.5621 29.6062 16.4888 29.35 16.4889H18.393L23.671 1.93194C23.7721 1.65041 23.7714 1.34319 23.669 1.06211C23.5666 0.781027 23.3688 0.543289 23.1089 0.389007C22.849 0.234725 22.5429 0.173342 22.2423 0.215216C21.9418 0.25709 21.6651 0.399656 21.459 0.618862L0.558968 22.9156C0.385617 23.101 0.27086 23.3319 0.228699 23.5803C0.186537 23.8287 0.218794 24.0839 0.321533 24.3145C0.424273 24.5452 0.593054 24.7415 0.807281 24.8794C1.02151 25.0174 1.27192 25.091 1.52797 25.0913H8.65197C8.99537 25.082 9.32153 24.9413 9.56108 24.6991C9.80062 24.4569 9.93465 24.1323 9.93465 23.7945C9.93465 23.4566 9.80062 23.132 9.56108 22.8898C9.32153 22.6476 8.99537 22.5069 8.65197 22.4976H4.53397L19.014 7.05541L15.281 17.3496C15.2107 17.5465 15.1895 17.7571 15.2192 17.9638C15.2489 18.1704 15.3286 18.367 15.4515 18.5371C15.5745 18.7072 15.7371 18.8458 15.9258 18.9412C16.1146 19.0367 16.3238 19.0862 16.536 19.0856H26.341L11.863 34.5278L15.598 24.2326C15.6689 24.0369 15.691 23.8273 15.6625 23.6214C15.6339 23.4155 15.5554 23.2193 15.4337 23.0495C15.3119 22.8796 15.1505 22.741 14.963 22.6453C14.7754 22.5496 14.5672 22.4996 14.356 22.4996H14.343C14.0491 22.4993 13.7637 22.5961 13.5325 22.7744C13.3013 22.9528 13.1377 23.2024 13.068 23.4832L7.20497 39.6424C7.10347 39.9239 7.10381 40.2312 7.20594 40.5124C7.30808 40.7937 7.50574 41.0317 7.76557 41.1862C8.0254 41.3407 8.33149 41.4024 8.63216 41.3607C8.93284 41.319 9.20968 41.1766 9.41597 40.9574L30.316 18.6607C30.4895 18.4762 30.6048 18.246 30.6478 17.9982C30.6908 17.7504 30.6596 17.4956 30.558 17.265Z" fill="black"/>
</svg>
