<svg width="21" height="45" viewBox="0 0 21 45" fill="none" xmlns="http://www.w3.org/2000/svg">
<path d="M18 12.7885H1C0.447715 12.7885 0 13.2288 0 13.772V39.3451C0 39.8883 0.447715 40.3287 1 40.3287H18C18.5523 40.3287 19 39.8883 19 39.3451V13.772C19 13.2288 18.5523 12.7885 18 12.7885Z" fill="#F0BF00"/>
<path d="M19.949 12.1265V0.372681H18.455V12.1265H17.708V44.4508H20.696V12.1265H19.949Z" fill="black"/>
<path d="M7.99906 0.372681H6.50506V12.1265H5.75806V44.4508H8.74506V12.1265H7.99806L7.99906 0.372681Z" fill="black"/>
<path d="M13.2269 4.19294V3.84967C13.227 3.5513 13.2639 3.25405 13.3369 2.96445L13.9519 0.547793L12.5019 0.196655L11.8879 2.61233C11.785 3.01699 11.733 3.43254 11.7329 3.84967V4.19294C11.7329 5.20022 12.0363 6.18492 12.6049 7.0227C13.0098 7.61902 13.2259 8.32 13.2259 9.03707V9.20723C13.2258 9.59804 13.1616 9.98629 13.0359 10.357L12.4359 12.1275H11.7329V44.4509H14.7199V12.1275H14.0109L14.4539 10.8282C14.6302 10.307 14.72 9.76137 14.7199 9.21215V9.04199C14.7209 8.03303 14.4174 7.04648 13.8479 6.20731C13.443 5.61098 13.2269 4.91001 13.2269 4.19294Z" fill="black"/>
</svg>
