<svg width="45" height="43" viewBox="0 0 45 43" fill="none" xmlns="http://www.w3.org/2000/svg">
<path d="M6.86499 2.66394H39C39.2652 2.66394 39.5196 2.76757 39.7071 2.95202C39.8946 3.13648 40 3.38666 40 3.64752V21.8437C40 22.3867 39.011 21.8437 38.459 21.8437L32.033 24.3951L30.678 11.8614C30.678 11.8614 21.613 12.0965 16.092 12.0965C13.5896 12.1426 11.0864 12.0641 8.59199 11.8614H5.86499V3.64752C5.86499 3.38666 5.97035 3.13648 6.15788 2.95202C6.34542 2.76757 6.59977 2.66394 6.86499 2.66394V2.66394Z" fill="#F0BF00"/>
<path d="M38.5641 20.4874C37.5484 20.5263 36.565 20.8494 35.7295 21.4187C34.894 21.9881 34.2409 22.7801 33.8471 23.7018H33.1171V15.1299C33.1171 14.5669 33.0044 14.0096 32.7854 13.4895C32.5663 12.9694 32.2453 12.4969 31.8407 12.0989C31.436 11.7008 30.9556 11.3851 30.4268 11.1697C29.8981 10.9543 29.3314 10.8434 28.7591 10.8434H20.0441V10.1254C20.9811 9.7379 21.7862 9.09556 22.3651 8.27377C22.9439 7.45198 23.2724 6.48484 23.3121 5.48585C23.3121 2.53512 20.3801 0.128296 16.7751 0.128296C13.1701 0.128296 10.2341 2.5302 10.2341 5.48487C10.2737 6.48386 10.6022 7.451 11.1811 8.27279C11.7599 9.09458 12.5651 9.73692 13.5021 10.1244V10.8424H4.79208C4.2197 10.8424 3.65292 10.9533 3.12412 11.1688C2.59531 11.3843 2.11485 11.7001 1.71016 12.0982C1.30547 12.4964 0.984479 12.969 0.765528 13.4892C0.546577 14.0094 0.433951 14.5669 0.434082 15.1299V24.7739C0.434082 25.0579 0.548816 25.3304 0.753043 25.5312C0.95727 25.7321 1.23426 25.845 1.52308 25.845H4.07108C4.29702 25.8451 4.51739 25.776 4.7016 25.6474C4.88582 25.5187 5.02474 25.3368 5.09908 25.127C5.27057 24.4611 5.64731 23.8637 6.17762 23.4168C6.70792 22.9699 7.36582 22.6953 8.06108 22.6306C9.86108 22.6306 11.3291 24.5535 11.3291 26.9171C11.3291 29.2806 9.86308 31.2035 8.06108 31.2035C7.36582 31.1389 6.70792 30.8643 6.17762 30.4173C5.64731 29.9704 5.27057 29.373 5.09908 28.7072C5.02474 28.4973 4.88582 28.3155 4.7016 28.1868C4.51739 28.0581 4.29702 27.9891 4.07108 27.9892H1.52308C1.23426 27.9892 0.95727 28.102 0.753043 28.3029C0.548816 28.5038 0.434082 28.7762 0.434082 29.0603V38.7043C0.434082 39.8411 0.893227 40.9314 1.71051 41.7353C2.52779 42.5391 3.63627 42.9907 4.79208 42.9907H28.7591C29.9149 42.9907 31.0234 42.5391 31.8407 41.7353C32.6579 40.9314 33.1171 39.8411 33.1171 38.7043V30.1314H33.8471C34.2409 31.0531 34.894 31.8451 35.7295 32.4144C36.565 32.9838 37.5484 33.3069 38.5641 33.3457C41.5641 33.3457 44.0111 30.4619 44.0111 26.9161C44.0508 25.646 43.7152 24.3918 43.0448 23.3056C42.3744 22.2193 41.398 21.3477 40.2341 20.7963C39.7044 20.5831 39.1363 20.4781 38.5641 20.4874ZM38.5641 31.2035C37.8688 31.1389 37.2109 30.8643 36.6806 30.4173C36.1503 29.9704 35.7736 29.373 35.6021 28.7072C35.5277 28.4973 35.3888 28.3155 35.2046 28.1868C35.0204 28.0581 34.8 27.9891 34.5741 27.9892H32.0281C31.8847 27.9885 31.7425 28.0158 31.6098 28.0693C31.4771 28.1228 31.3565 28.2016 31.2548 28.3012C31.1532 28.4007 31.0725 28.519 31.0175 28.6493C30.9624 28.7795 30.9341 28.9192 30.9341 29.0603V38.7043C30.9333 39.2718 30.704 39.8159 30.2964 40.2175C29.8888 40.6192 29.3361 40.8457 28.7591 40.8475H4.79208C4.21442 40.8467 3.66064 40.6207 3.25217 40.2189C2.8437 39.8172 2.61388 39.2725 2.61308 38.7043V30.1314H3.34308C3.73695 31.0531 4.38999 31.8451 5.22552 32.4144C6.06105 32.9838 7.04439 33.3069 8.06008 33.3457C11.0601 33.3457 13.5071 30.4619 13.5071 26.9161C13.5071 23.3703 11.0651 20.4874 8.06008 20.4874C7.04439 20.5263 6.06105 20.8494 5.22552 21.4187C4.38999 21.9881 3.73695 22.7801 3.34308 23.7018H2.61308V15.1299C2.61388 14.5617 2.8437 14.017 3.25217 13.6152C3.66064 13.2135 4.21442 12.9874 4.79208 12.9866H14.5921C14.8809 12.9866 15.1579 12.8738 15.3621 12.6729C15.5663 12.472 15.6811 12.1996 15.6811 11.9155V9.40935C15.6812 9.18713 15.611 8.97038 15.4802 8.78919C15.3494 8.608 15.1644 8.47136 14.9511 8.39823C14.2741 8.22956 13.6668 7.85901 13.2124 7.33741C12.758 6.81581 12.4788 6.16871 12.4131 5.48487C12.4131 3.71443 14.3671 2.27053 16.7711 2.27053C19.1751 2.27053 21.1341 3.71246 21.1341 5.48487C21.0684 6.16871 20.7892 6.81581 20.3348 7.33741C19.8804 7.85901 19.2731 8.22956 18.5961 8.39823C18.3827 8.47136 18.1978 8.608 18.067 8.78919C17.9362 8.97038 17.866 9.18713 17.8661 9.40935V11.9145C17.8661 12.1986 17.9808 12.4711 18.185 12.6719C18.3893 12.8728 18.6663 12.9856 18.9551 12.9856H28.7551C29.3329 12.9864 29.8868 13.2126 30.2953 13.6146C30.7038 14.0166 30.9336 14.5615 30.9341 15.1299V24.7739C30.9341 25.0579 31.0488 25.3304 31.253 25.5312C31.4573 25.7321 31.7343 25.845 32.0231 25.845H34.5701C34.796 25.8451 35.0164 25.776 35.2006 25.6474C35.3848 25.5187 35.5237 25.3368 35.5981 25.127C35.7694 24.461 36.1461 23.8636 36.6765 23.4166C37.2068 22.9697 37.8648 22.6951 38.5601 22.6306C40.3601 22.6306 41.8281 24.5535 41.8281 26.9171C41.8281 29.2806 40.3661 31.2035 38.5641 31.2035Z" fill="black"/>
</svg>
