<?xml version="1.0" encoding="UTF-8"?>
<!DOCTYPE svg PUBLIC "-//W3C//DTD SVG 1.1//EN" "http://www.w3.org/Graphics/SVG/1.1/DTD/svg11.dtd">
<svg xmlns="http://www.w3.org/2000/svg" version="1.1" width="38px" height="42px" style="shape-rendering:geometricPrecision; text-rendering:geometricPrecision; image-rendering:optimizeQuality; fill-rule:evenodd; clip-rule:evenodd" xmlns:xlink="http://www.w3.org/1999/xlink">
<g><path style="opacity:0.668" fill="#020202" d="M 7.5,-0.5 C 8.16667,-0.5 8.83333,-0.5 9.5,-0.5C 11.8595,1.79836 11.3595,3.79836 8,5.5C 7.53476,4.06919 6.70143,2.90252 5.5,2C 6.38053,1.2917 7.0472,0.458367 7.5,-0.5 Z"/></g>
<g><path style="opacity:0.822" fill="#020202" d="M -0.5,14.5 C -0.5,11.5 -0.5,8.5 -0.5,5.5C 1.16971,3.07538 3.16971,2.90871 5.5,5C 2.1563,9.29479 2.98963,12.1281 8,13.5C 9.65811,13.3248 10.9914,12.6582 12,11.5C 12.498,8.51838 12.6646,5.51838 12.5,2.5C 13.8333,2.5 15.1667,2.5 16.5,2.5C 16.6655,6.51383 16.4988,10.5138 16,14.5C 15.6258,15.4162 15.1258,16.2496 14.5,17C 10.9613,18.5039 7.29461,18.8372 3.5,18C 1.64977,17.3103 0.316435,16.1436 -0.5,14.5 Z"/></g>
<g><path style="opacity:0.563" fill="#010101" d="M 27.5,16.5 C 29.0174,16.5106 30.1841,17.1772 31,18.5C 32.9738,15.8817 34.8071,16.0483 36.5,19C 35.3252,22.6906 33.4919,23.1906 31,20.5C 29.1936,22.9519 27.6936,22.6186 26.5,19.5C 27.1272,18.5832 27.4606,17.5832 27.5,16.5 Z"/></g>
<g><path style="opacity:0.804" fill="#020202" d="M -0.5,18.5 C 1.11723,19.038 2.7839,19.3713 4.5,19.5C 4.33432,23.8461 4.50098,28.1794 5,32.5C 6.36891,28.7542 8.86891,26.0875 12.5,24.5C 15.5651,25.3974 17.3984,27.3974 18,30.5C 18.724,22.7438 22.3907,20.7438 29,24.5C 30.128,26.3453 30.628,28.3453 30.5,30.5C 31.5,30.5 32.5,30.5 33.5,30.5C 33.5,28.5 33.5,26.5 33.5,24.5C 34.9587,24.5674 36.2921,24.2341 37.5,23.5C 37.5,26.5 37.5,29.5 37.5,32.5C 35.7786,34.6943 33.4453,35.861 30.5,36C 29.3353,37.9917 28.002,39.825 26.5,41.5C 24.5,41.5 22.5,41.5 20.5,41.5C 19.7904,38.1405 21.1238,36.3071 24.5,36C 21.9427,35.3147 20.1094,33.8147 19,31.5C 18.1376,33.087 17.4709,34.7536 17,36.5C 15.769,37.1078 14.4357,37.4411 13,37.5C 10.4293,36.6762 7.92933,36.6762 5.5,37.5C 2.77504,37.063 0.775041,35.7296 -0.5,33.5C -0.5,28.5 -0.5,23.5 -0.5,18.5 Z M 23.5,27.5 C 25.4646,27.9483 25.7979,28.9483 24.5,30.5C 23.6143,29.675 23.281,28.675 23.5,27.5 Z M 11.5,30.5 C 13.2252,30.8425 13.7252,31.8425 13,33.5C 10.8424,32.9498 10.3424,31.9498 11.5,30.5 Z"/></g>
</svg>
