<svg xmlns="http://www.w3.org/2000/svg" width="55" height="54.5" viewBox="0 0 55 54.5">
  <g id="Group_8687" data-name="Group 8687" transform="translate(-975 -332)">
    <path id="Path_14624" data-name="Path 14624" d="M236.5,364.966H242v-5.315h-8.25a2.8,2.8,0,0,0-1.943.777,2.614,2.614,0,0,0-.8,1.88v7.974H192.79l-.8-4.9h0c-.352.151-4.019.181-4.278.457a2.645,2.645,0,0,0-.572.954,2.554,2.554,0,0,0-.123,1.1l2.752,26.581a2.622,2.622,0,0,0,.893,1.7,2.8,2.8,0,0,0,1.841.683h41.258a2.8,2.8,0,0,0,1.943-.777,2.611,2.611,0,0,0,.807-1.88ZM231,410.151a5.631,5.631,0,0,1-3.056-.895,5.364,5.364,0,0,1-2.026-2.387,5.143,5.143,0,0,1-.312-3.07,5.253,5.253,0,0,1,1.5-2.721,5.564,5.564,0,0,1,2.816-1.455,5.675,5.675,0,0,1,3.179.3,5.463,5.463,0,0,1,2.468,1.957,5.185,5.185,0,0,1-.684,6.712A5.6,5.6,0,0,1,231,410.151Zm-35.75,0a5.63,5.63,0,0,1-3.054-.895,5.363,5.363,0,0,1-2.026-2.387,5.158,5.158,0,0,1-.313-3.07,5.268,5.268,0,0,1,1.505-2.721,5.565,5.565,0,0,1,2.816-1.455,5.667,5.667,0,0,1,3.177.3,5.468,5.468,0,0,1,2.47,1.957,5.169,5.169,0,0,1,.508,4.988,5.29,5.29,0,0,1-1.194,1.723,5.486,5.486,0,0,1-1.786,1.152,5.606,5.606,0,0,1-2.1.4ZM231,391.546V370.282H192.79l2.2,21.264Z" transform="translate(788 -23.651)" fill="#1e2d5e" fill-rule="evenodd"/>
    <g id="published_with_changes_black_24dp" transform="translate(983 332)">
      <rect id="Rectangle_5162" data-name="Rectangle 5162" width="35" height="35" fill="none"/>
      <path id="Path_14628" data-name="Path 14628" d="M24.686,12.886,14.444,23.128,8.3,16.986l2.043-2.043,4.1,4.1,8.2-8.2ZM4.9,16.464a11.512,11.512,0,0,1,3.8-8.518l3.448,3.448V2.7H3.449L6.636,5.889a14.452,14.452,0,0,0,8.4,24.99V27.952A11.6,11.6,0,0,1,4.9,16.464Zm26.076,0A14.485,14.485,0,0,0,17.935,2.05V4.976a11.537,11.537,0,0,1,6.345,20.006l-3.448-3.448v8.692h8.692L26.338,27.04A14.39,14.39,0,0,0,30.973,16.464Z" transform="translate(0.897 0.92)" fill="#889cf0"/>
    </g>
  </g>
</svg>
