<svg xmlns="http://www.w3.org/2000/svg" width="55.12" height="54.5" viewBox="0 0 55.12 54.5">
  <g id="Group_8690" data-name="Group 8690" transform="translate(-565 -332)">
    <path id="Path_14626" data-name="Path 14626" d="M236.609,364.966h5.512v-5.315h-8.268a2.808,2.808,0,0,0-1.948.777,2.611,2.611,0,0,0-.807,1.88v7.974H192.8l-.8-4.9h0c-.353.151-4.028.181-4.287.457a2.644,2.644,0,0,0-.573.954,2.549,2.549,0,0,0-.123,1.1l2.758,26.581a2.62,2.62,0,0,0,.895,1.7,2.806,2.806,0,0,0,1.845.683H233.86a2.805,2.805,0,0,0,1.948-.777,2.608,2.608,0,0,0,.808-1.88Zm-5.51,45.184a5.652,5.652,0,0,1-3.063-.895,5.367,5.367,0,0,1-2.03-2.387,5.133,5.133,0,0,1-.312-3.07,5.25,5.25,0,0,1,1.507-2.721,5.581,5.581,0,0,1,2.822-1.455,5.7,5.7,0,0,1,3.186.3,5.473,5.473,0,0,1,2.473,1.957,5.176,5.176,0,0,1-.685,6.712,5.615,5.615,0,0,1-3.9,1.556Zm-35.829,0a5.651,5.651,0,0,1-3.061-.895,5.366,5.366,0,0,1-2.03-2.387,5.148,5.148,0,0,1-.314-3.07,5.265,5.265,0,0,1,1.508-2.721,5.581,5.581,0,0,1,2.822-1.455,5.691,5.691,0,0,1,3.184.3,5.478,5.478,0,0,1,2.475,1.957,5.16,5.16,0,0,1,.509,4.988,5.29,5.29,0,0,1-1.2,1.723,5.5,5.5,0,0,1-1.79,1.152,5.629,5.629,0,0,1-2.109.4ZM231.1,391.546V370.282H192.8l2.2,21.264Z" transform="translate(378 -23.651)" fill="#1e2d5e" fill-rule="evenodd"/>
    <g id="assignment_return_black_24dp" transform="translate(573 332)">
      <path id="Path_14634" data-name="Path 14634" d="M0,0H35V35H0Z" fill="none"/>
      <path id="Path_14635" data-name="Path 14635" d="M28.778,4.1H22.043a4.879,4.879,0,0,0-9.087,0H6.222A3.172,3.172,0,0,0,3,7.2V28.9A3.172,3.172,0,0,0,6.222,32H28.778A3.172,3.172,0,0,0,32,28.9V7.2A3.172,3.172,0,0,0,28.778,4.1ZM17.5,4.1a1.586,1.586,0,0,1,1.611,1.55,1.612,1.612,0,0,1-3.222,0A1.586,1.586,0,0,1,17.5,4.1Zm6.444,18.6H17.5v4.65L9.444,19.6,17.5,11.85V16.5h6.444Z" transform="translate(0 0)" fill="#f98a62"/>
    </g>
  </g>
</svg>
