<svg xmlns="http://www.w3.org/2000/svg" width="55.12" height="61.164" viewBox="0 0 55.12 61.164">
  <g id="Group_8688" data-name="Group 8688" transform="translate(-770 -325.336)">
    <path id="Path_14625" data-name="Path 14625" d="M236.609,364.966h5.512v-5.315h-8.268a2.808,2.808,0,0,0-1.948.777,2.611,2.611,0,0,0-.807,1.88v7.974H192.8l-.8-4.9h0c-.353.151-4.028.181-4.287.457a2.644,2.644,0,0,0-.573.954,2.549,2.549,0,0,0-.123,1.1l2.758,26.581a2.62,2.62,0,0,0,.895,1.7,2.806,2.806,0,0,0,1.845.683H233.86a2.805,2.805,0,0,0,1.948-.777,2.608,2.608,0,0,0,.808-1.88Zm-5.51,45.184a5.652,5.652,0,0,1-3.063-.895,5.367,5.367,0,0,1-2.03-2.387,5.133,5.133,0,0,1-.312-3.07,5.25,5.25,0,0,1,1.507-2.721,5.581,5.581,0,0,1,2.822-1.455,5.7,5.7,0,0,1,3.186.3,5.473,5.473,0,0,1,2.473,1.957,5.176,5.176,0,0,1-.685,6.712,5.615,5.615,0,0,1-3.9,1.556Zm-35.829,0a5.651,5.651,0,0,1-3.061-.895,5.366,5.366,0,0,1-2.03-2.387,5.148,5.148,0,0,1-.314-3.07,5.265,5.265,0,0,1,1.508-2.721,5.581,5.581,0,0,1,2.822-1.455,5.691,5.691,0,0,1,3.184.3,5.478,5.478,0,0,1,2.475,1.957,5.16,5.16,0,0,1,.509,4.988,5.29,5.29,0,0,1-1.2,1.723,5.5,5.5,0,0,1-1.79,1.152,5.629,5.629,0,0,1-2.109.4ZM231.1,391.546V370.282H192.8l2.2,21.264Z" transform="translate(583 -23.651)" fill="#1e2d5e" fill-rule="evenodd"/>
    <g id="how_to_reg_black_24dp" transform="translate(773 325.336)">
      <path id="Path_14629" data-name="Path 14629" d="M0,0H42.945V42.945H0Z" fill="none" fill-rule="evenodd"/>
      <g id="Group_8657" data-name="Group 8657" transform="translate(5.342 7.335)">
        <path id="Path_14630" data-name="Path 14630" d="M13.683,27.147l5.342-5.235a16.631,16.631,0,0,0-1.781-.107C12.49,21.805,3,24.191,3,28.927v3.561H19.025Zm3.561-8.9a7.122,7.122,0,1,0-7.122-7.122,7.12,7.12,0,0,0,7.122,7.122" transform="translate(-3 -4)" fill="#57b894" fill-rule="evenodd"/>
        <path id="Path_14631" data-name="Path 14631" d="M18.178,26.744,12,20.512,14.493,18l3.686,3.7L27.312,12.5l2.493,2.511Z" transform="translate(4.238 2.634)" fill="#57b894" fill-rule="evenodd"/>
      </g>
    </g>
  </g>
</svg>
