<svg xmlns="http://www.w3.org/2000/svg" width="38.735" height="35.488" viewBox="0 0 38.735 35.488">
  <path id="Path_12683" data-name="Path 12683" d="M221.862,363.386h3.874v-3.735h-5.81a1.974,1.974,0,0,0-1.369.546,1.835,1.835,0,0,0-.567,1.321v5.6H191.077l-.565-3.442h0c-.248.106-2.831.127-3.013.321a1.858,1.858,0,0,0-.4.67,1.791,1.791,0,0,0-.087.77l1.938,18.68a1.841,1.841,0,0,0,.629,1.194,1.972,1.972,0,0,0,1.3.48H219.93a1.971,1.971,0,0,0,1.369-.546,1.833,1.833,0,0,0,.568-1.321Zm-3.872,31.753a3.972,3.972,0,0,1-2.152-.629,3.771,3.771,0,0,1-1.427-1.677,3.607,3.607,0,0,1-.22-2.158,3.69,3.69,0,0,1,1.059-1.912,3.922,3.922,0,0,1,1.983-1.023,4.005,4.005,0,0,1,2.239.213,3.846,3.846,0,0,1,1.738,1.375,3.637,3.637,0,0,1-.482,4.717,3.946,3.946,0,0,1-2.739,1.094Zm-25.178,0a3.971,3.971,0,0,1-2.151-.629,3.771,3.771,0,0,1-1.427-1.677,3.618,3.618,0,0,1-.221-2.158,3.7,3.7,0,0,1,1.06-1.912,3.922,3.922,0,0,1,1.983-1.023,4,4,0,0,1,2.238.213,3.849,3.849,0,0,1,1.739,1.375,3.626,3.626,0,0,1,.358,3.506,3.717,3.717,0,0,1-.841,1.211,3.865,3.865,0,0,1-1.258.81,3.956,3.956,0,0,1-1.482.284Zm25.178-13.075V367.122H191.077l1.549,14.943Z" transform="translate(-187 -359.651)" fill="#1e2d5e" fill-rule="evenodd"/>
</svg>
